<svg enable-background="new 0 0 512 512" viewBox="0 0 512 512" xmlns="http://www.w3.org/2000/svg"><g id="_x37_5_Running"><g><path d="m376.556 195.742 100.718-107.237c1.145-1.223 1.721-2.858 1.604-4.525s-.935-3.209-2.235-4.252l-94.901-75.64c-1.324-1.051-3.03-1.495-4.704-1.223-1.667.28-3.146 1.246-4.058 2.671l-67.416 104.932c-11.343 17.651-26.95 32.24-45.227 42.473-4.849-2.774-10.836-3.277-16.161-1.07l-105.119 43.926c-8.707 3.637-15.436 10.467-18.941 19.229-3.513 8.762-3.357 18.357.436 27.01l68.942 157.153c5.966 13.598 14.44 25.678 25.187 35.904l55.967 53.272c6.527 6.199 15.07 9.619 24.066 9.619h29.923c18.528 0 33.607-15.078 33.607-33.607 0-17.578-12.679-32.251-29.37-35.351l-18.427-52.228c29.932-94.011 40.801-100.435 32.739-118.477 4.137-9.799 8.35-35.926 33.37-62.579zm-60.928-78.81 63.833-99.356 84.651 67.462-96.279 102.51c-25.652 27.344-31.37 54.775-33.488 59.608-12.302-9.445-16.124-15.348-25.96-17.77-11.2-2.749-21.465-11.34-28.163-23.583l-5.023-9.167c-3.918-7.157-5.67-15.764-5.678-27.898 0-2.271-.434-4.484-1.23-6.554 19.076-11.129 35.379-26.633 47.337-45.252zm-184.404 102.541c5.258-13.145 17.529-13.671 28.231-19.229l30.376 87.011c10.056 28.559-16.85 42.191-17.517 42.995l-40.809-93.02c-2.493-5.693-2.594-11.994-.281-17.757zm167.238 155.385c-.444 1.277-.436 2.671.016 3.941l17.5 49.627h-30.912c-3.302 0-5.981 2.679-5.981 5.981s2.679 5.981 5.981 5.981h37.228c13.225 0 23.988 10.763 23.988 23.988 0 11.932-9.712 21.644-21.644 21.644h-29.923c-5.911 0-11.535-2.251-15.826-6.324l-55.959-53.264c-22.417-21.361-24.646-40.763-45.765-85.12l4.362-2.701c18.614-11.433 26.846-34.705 19.588-55.313l-30.606-87.675 78.27-32.709c.779-.327 1.604-.483 2.422-.483 1.721 0 3.419.693 4.642 1.994 1.106 1.176 1.713 2.703 1.713 4.323.008 8.848.755 21.955 7.15 33.638 2.693 3.581 12.783 31.744 40.826 38.622 6.041 1.486 7.672 4.744 22.197 16.2 15.549 12.857-1.447 26.533-29.267 117.65z"/><path d="m39.088 509.214h175.759c3.302 0 5.981-2.679 5.981-5.981s-2.679-5.981-5.981-5.981h-175.759c-3.302 0-5.981 2.679-5.981 5.981s2.679 5.981 5.981 5.981z"/><path d="m33.107 463.068c0 3.302 2.679 5.981 5.981 5.981h114.512c3.302 0 5.981-2.679 5.981-5.981s-2.679-5.981-5.981-5.981h-114.512c-3.302 0-5.981 2.679-5.981 5.981z"/><path d="m115.429 416.923h-76.341c-3.302 0-5.981 2.679-5.981 5.981s2.679 5.981 5.981 5.981h76.341c3.302 0 5.981-2.679 5.981-5.981s-2.679-5.981-5.981-5.981z"/><path d="m39.088 388.713h38.171c3.302 0 5.981-2.679 5.981-5.981s-2.679-5.981-5.981-5.981h-38.171c-3.302 0-5.981 2.679-5.981 5.981s2.679 5.981 5.981 5.981z"/></g></g><g id="Layer_1"/></svg>