<svg fill="none" height="512" viewBox="0 0 128 129" width="512" xmlns="http://www.w3.org/2000/svg"><g fill="rgb(0,0,0)"><path d="m21.3031 25.2557c.7612-7.9796 7.6728-13.9325 15.6846-13.5206l2.6579.1366c.551.8257 1.6447 2.3475 2.7323 3.4576 2.1513 2.1958 5.5314 4.6004 10.0344 4.6004s7.8831-2.4046 10.0344-4.6004c1.0877-1.1101 2.1814-2.6319 2.7324-3.4576l2.6579-.1366c8.0117-.4119 14.9233 5.541 15.6845 13.5206.2623 2.7502.5438 5.7105.8326 8.7637.104 1.0997 1.0798 1.9068 2.1795 1.8028 1.0996-.104 1.9067-1.0798 1.8027-2.1795-.2889-3.0544-.5705-6.0158-.8329-8.7669-.9651-10.1175-9.7283-17.65692-19.8718-17.13547l-3.7345.19198c-.7118.03659-1.3502.44921-1.676 1.08287-.526 1.02312-1.7597 2.62492-2.6316 3.51482-1.7677 1.8042-4.1813 3.3997-7.1772 3.3997-2.9958 0-5.4095-1.5955-7.1772-3.3997-.8718-.8899-2.0819-2.4604-2.626-3.5184-.3258-.63354-.9698-1.0427-1.6816-1.07929l-3.7345-.19198c-10.1435-.52145-18.9066 7.01797-19.8718 17.13547-.8697 9.117-1.9495 20.5451-2.812 30.0162-.8546 9.3843-1.5151 17.0372-1.5151 18.4408 0 .5304.2108 1.0391.5858 1.4142 2.098 2.098 5.1467 3.4655 7.8957 4.3433 1.9199.613 3.816 1.025 5.3715 1.2742-.0375 1.1621-.0569 2.0262-.0569 2.5092 0 .6743.3399 1.3033.9039 1.6729 1.2003.7864 2.9664 1.2829 4.7544 1.6342 1.8626.366 4.0345.625 6.2423.8066 4.4194.3636 9.14.43 12.1477.3801 1.1044-.0183 1.9849-.9284 1.9666-2.0329-.0183-1.1044-.9285-1.9848-2.0329-1.9665-2.9119.0483-7.4965-.017-11.7534-.3672-2.1304-.1753-4.1396-.4189-5.799-.745-1.0205-.2005-1.8203-.4165-2.4081-.6273.0192-.7454.0514-1.7368.097-2.9373.2226-5.8556.7536-16.4152 1.57-26.5901.4083-5.0882.8866-10.0632 1.431-14.2978.5498-4.2756 1.1517-7.6666 1.7785-9.6611.3312-1.0538-.2545-2.1765-1.3083-2.5077s-2.1765.2546-2.5076 1.3084c-.7433 2.3649-1.3794 6.0687-1.9299 10.3502-.5558 4.3225-1.04 9.3671-1.4509 14.4881-.7277 9.0699-1.2297 18.4329-1.4907 24.553-1.2755-.2244-2.785-.568-4.3085-1.0545-2.1943-.7007-4.23-1.6391-5.6615-2.8022.1461-2.4369.7153-9.0247 1.4619-17.2229.8617-9.4623 1.9409-20.8837 2.8104-29.999z"/><path d="m72.9524 26.943c-.3312-1.0538-1.4539-1.6396-2.5077-1.3084-1.0537.3312-1.6395 1.4539-1.3083 2.5077.4289 1.3647.8538 3.413 1.2601 5.9992.1714 1.0912 1.1949 1.8368 2.2861 1.6654 1.0912-.1715 1.8368-1.195 1.6654-2.2862-.4143-2.6369-.8753-4.922-1.3956-6.5777z"/><path clip-rule="evenodd" d="m61.6484 38.8399c-.9405 0-1.7539.6552-1.9542 1.574-2.5428 11.6661-3.8309 31.066-4.4908 47.4088-.3312 8.2011-.5056 15.6823-.5973 21.1123-.0459 2.715-.071 4.919-.0848 6.444-.0068.763-.0136 1.974-.0159 2.377-.0014.531.2087 1.042.5839 1.418s.8847.588 1.4161.588h15.6526c.9706 0 1.8012-.697 1.9696-1.653l9.2059-52.2494h.9039l9.2059 52.2494c.1684.956.9989 1.653 1.9696 1.653h15.6531c.531 0 1.04-.212 1.416-.588.375-.376.585-.886.584-1.418-.003-.405-.01-1.621-.016-2.387-.014-1.532-.039-3.745-.085-6.471-.092-5.45-.266-12.9554-.598-21.1728-.659-16.3733-1.947-35.7767-4.491-47.3159-.202-.9166-1.015-1.5694-1.953-1.5694zm8.8311 76.9221h-11.9613c.0136-1.517.0417-4.056.0873-6.76.0913-5.408.265-12.8562.5946-21.0179.6316-15.6432 1.8303-33.728 4.0766-45.1442h41.0213c2.243 11.3007 3.441 29.376 4.073 45.0464.329 8.178.503 15.6507.594 21.0797.046 2.714.074 5.273.088 6.796h-11.9617l-9.2058-52.2494c-.1685-.956-.999-1.653-1.9697-1.653h-4.2607c-.9707 0-1.8013.697-1.9697 1.653z" fill-rule="evenodd"/></g></svg>